{
  "accessors": [
    {
      "bufferView": 1,
      "componentType": 5126,
      "count": 65201,
      "max": [
        0.3325956463813782,
        0.3351369798183441,
        0.46937400102615356
      ],
      "min": [
        -0.3075680732727051,
        -0.33607524633407593,
        0.3477008640766144
      ],
      "type": "VEC3"
    },
    {
      "bufferView": 1,
      "byteOffset": 782412,
      "componentType": 5126,
      "count": 65201,
      "max": [
        0.9979317784309387,
        0.9981236457824707,
        0.9999909996986389
      ],
      "min": [
        -0.9990015029907227,
        -0.9991212487220764,
        -0.9999988675117493
      ],
      "type": "VEC3"
    },
    {
      "bufferView": 2,
      "componentType": 5126,
      "count": 65201,
      "max": [
        0.3921568691730499,
        0.9254902005195618,
        0.2705882489681244,
        1.0
      ],
      "min": [
        0.07450980693101883,
        0.21176470816135406,
        0.03921568766236305,
        1.0
      ],
      "type": "VEC4"
    },
    {
      "bufferView": 0,
      "componentType": 5125,
      "count": 387072,
      "type": "SCALAR"
    },
    {
      "bufferView": 1,
      "byteOffset": 1564824,
      "componentType": 5126,
      "count": 10500,
      "max": [
        0.3898257315158844,
        0.387386292219162,
        0.3923497200012207
      ],
      "min": [
        -0.3889409899711609,
        -0.3858519196510315,
        -0.5217145681381226
      ],
      "type": "VEC3"
    },
    {
      "bufferView": 1,
      "byteOffset": 1690824,
      "componentType": 5126,
      "count": 10500,
      "max": [
        0.9999716877937317,
        0.9997674822807312,
        0.9999470710754395
      ],
      "min": [
        -0.9998710751533508,
        -0.9997888803482056,
        -0.9999142289161682
      ],
      "type": "VEC3"
    },
    {
      "bufferView": 2,
      "byteOffset": 1043216,
      "componentType": 5126,
      "count": 10500,
      "max": [
        0.9921568632125854,
        0.658823549747467,
        0.29019609093666077,
        1.0
      ],
      "min": [
        0.7215686440467834,
        0.0235294122248888,
        0.0,
        1.0
      ],
      "type": "VEC4"
    },
    {
      "bufferView": 0,
      "byteOffset": 1548288,
      "componentType": 5125,
      "count": 58416,
      "type": "SCALAR"
    },
    {
      "bufferView": 1,
      "byteOffset": 1816824,
      "componentType": 5126,
      "count": 1857,
      "max": [
        0.14472737908363342,
        0.3705262541770935,
        0.32710951566696167
      ],
      "min": [
        -0.3834110200405121,
        -0.3851904571056366,
        -0.5210485458374023
      ],
      "type": "VEC3"
    },
    {
      "bufferView": 1,
      "byteOffset": 1839108,
      "componentType": 5126,
      "count": 1857,
      "max": [
        0.9979371428489685,
        0.9980891346931458,
        0.9996488690376282
      ],
      "min": [
        -0.9997825622558594,
        -0.9998738765716553,
        -0.9977360367774963
      ],
      "type": "VEC3"
    },
    {
      "bufferView": 2,
      "byteOffset": 1211216,
      "componentType": 5126,
      "count": 1857,
      "max": [
        0.9921568632125854,
        0.658823549747467,
        0.1411764770746231,
        1.0
      ],
      "min": [
        0.729411780834198,
        0.0235294122248888,
        0.0,
        1.0
      ],
      "type": "VEC4"
    },
    {
      "bufferView": 0,
      "byteOffset": 1781952,
      "componentType": 5125,
      "count": 9159,
      "type": "SCALAR"
    },
    {
      "bufferView": 1,
      "byteOffset": 1861392,
      "componentType": 5126,
      "count": 65532,
      "max": [
        0.3898903727531433,
        0.38548892736434937,
        0.39266636967658997
      ],
      "min": [
        -0.3899186849594116,
        -0.38981807231903076,
        -0.5657620429992676
      ],
      "type": "VEC3"
    },
    {
      "bufferView": 1,
      "byteOffset": 2647776,
      "componentType": 5126,
      "count": 65532,
      "max": [
        0.9999565482139587,
        0.9996974468231201,
        0.9999985098838806
      ],
      "min": [
        -0.999932050704956,
        -0.9997696280479431,
        -0.9999710321426392
      ],
      "type": "VEC3"
    },
    {
      "bufferView": 2,
      "byteOffset": 1240928,
      "componentType": 5126,
      "count": 65532,
      "max": [
        0.9921568632125854,
        0.658823549747467,
        0.38823530077934265,
        1.0
      ],
      "min": [
        0.7098039388656616,
        0.019607843831181526,
        0.0,
        1.0
      ],
      "type": "VEC4"
    },
    {
      "bufferView": 0,
      "byteOffset": 1818588,
      "componentType": 5125,
      "count": 292746,
      "type": "SCALAR"
    },
    {
      "bufferView": 1,
      "byteOffset": 3434160,
      "componentType": 5126,
      "count": 65532,
      "max": [
        0.3897952437400818,
        0.3899935781955719,
        0.392665833234787
      ],
      "min": [
        -0.3898873031139374,
        -0.389896035194397,
        -0.5656725168228149
      ],
      "type": "VEC3"
    },
    {
      "bufferView": 1,
      "byteOffset": 4220544,
      "componentType": 5126,
      "count": 65532,
      "max": [
        0.9998068809509277,
        0.99995356798172,
        0.999998152256012
      ],
      "min": [
        -0.999907374382019,
        -0.9999876618385315,
        -0.9997243285179138
      ],
      "type": "VEC3"
    },
    {
      "bufferView": 2,
      "byteOffset": 2289440,
      "componentType": 5126,
      "count": 65532,
      "max": [
        0.9921568632125854,
        0.658823549747467,
        0.38823530077934265,
        1.0
      ],
      "min": [
        0.7098039388656616,
        0.019607843831181526,
        0.0,
        1.0
      ],
      "type": "VEC4"
    },
    {
      "bufferView": 0,
      "byteOffset": 2989572,
      "componentType": 5125,
      "count": 279243,
      "type": "SCALAR"
    },
    {
      "bufferView": 1,
      "byteOffset": 5006928,
      "componentType": 5126,
      "count": 8836,
      "max": [
        0.33689627051353455,
        0.3769926130771637,
        0.39243143796920776
      ],
      "min": [
        -0.35502827167510986,
        -0.389896035194397,
        -0.5592362880706787
      ],
      "type": "VEC3"
    },
    {
      "bufferView": 1,
      "byteOffset": 5112960,
      "componentType": 5126,
      "count": 8836,
      "max": [
        0.9456498622894287,
        0.9912567734718323,
        0.9999499320983887
      ],
      "min": [
        -0.9925602078437805,
        -0.9999876618385315,
        -0.9623392820358276
      ],
      "type": "VEC3"
    },
    {
      "bufferView": 2,
      "byteOffset": 3337952,
      "componentType": 5126,
      "count": 8836,
      "max": [
        0.9921568632125854,
        0.658823549747467,
        0.38823530077934265,
        1.0
      ],
      "min": [
        0.7098039388656616,
        0.019607843831181526,
        0.0,
        1.0
      ],
      "type": "VEC4"
    },
    {
      "bufferView": 0,
      "byteOffset": 4106544,
      "componentType": 5125,
      "count": 27567,
      "type": "SCALAR"
    },
    {
      "bufferView": 1,
      "byteOffset": 5218992,
      "componentType": 5126,
      "count": 6345,
      "max": [
        0.29202958941459656,
        0.38576146960258484,
        0.2193039059638977
      ],
      "min": [
        -0.3424395024776459,
        -0.3872984051704407,
        -0.513130247592926
      ],
      "type": "VEC3"
    },
    {
      "bufferView": 1,
      "byteOffset": 5295132,
      "componentType": 5126,
      "count": 6345,
      "max": [
        0.9999209642410278,
        0.9999442100524902,
        0.9997797012329102
      ],
      "min": [
        -0.9998824596405029,
        -0.9999834299087524,
        -0.999683141708374
      ],
      "type": "VEC3"
    },
    {
      "bufferView": 2,
      "byteOffset": 3479328,
      "componentType": 5126,
      "count": 6345,
      "max": [
        0.9921568632125854,
        0.658823549747467,
        0.09019608050584793,
        1.0
      ],
      "min": [
        0.7215686440467834,
        0.0235294122248888,
        0.0,
        1.0
      ],
      "type": "VEC4"
    },
    {
      "bufferView": 0,
      "byteOffset": 4216812,
      "componentType": 5125,
      "count": 35898,
      "type": "SCALAR"
    }
  ],
  "asset": {
    "extras": {
      "author": "Nicholas DaRocha (https://sketchfab.com/LionRiderKing)",
      "license": "CC-BY-4.0 (http://creativecommons.org/licenses/by/4.0/)",
      "source": "https://sketchfab.com/3d-models/sculptober-day-21-fresh-dd577dd41b4c4598a106c771243ba01e",
      "title": "Sculptober Day 21: Fresh"
    },
    "generator": "Sketchfab-12.68.0",
    "version": "2.0"
  },
  "bufferViews": [
    {
      "buffer": 0,
      "byteLength": 4360404,
      "name": "floatBufferViews",
      "target": 34963
    },
    {
      "buffer": 0,
      "byteLength": 5371272,
      "byteOffset": 4360404,
      "byteStride": 12,
      "name": "floatBufferViews",
      "target": 34962
    },
    {
      "buffer": 0,
      "byteLength": 3580848,
      "byteOffset": 9731676,
      "byteStride": 16,
      "name": "floatBufferViews",
      "target": 34962
    }
  ],
  "buffers": [
    {
      "byteLength": 13312524,
      "uri": "scene.bin"
    }
  ],
  "materials": [
    {
      "doubleSided": true,
      "name": "material_0",
      "pbrMetallicRoughness": {
        "metallicFactor": 0.0,
        "roughnessFactor": 0.6
      }
    }
  ],
  "meshes": [
    {
      "name": "Object_0",
      "primitives": [
        {
          "attributes": {
            "COLOR_0": 2,
            "NORMAL": 1,
            "POSITION": 0
          },
          "indices": 3,
          "material": 0,
          "mode": 4
        }
      ]
    },
    {
      "name": "Object_1",
      "primitives": [
        {
          "attributes": {
            "COLOR_0": 6,
            "NORMAL": 5,
            "POSITION": 4
          },
          "indices": 7,
          "material": 0,
          "mode": 4
        }
      ]
    },
    {
      "name": "Object_2",
      "primitives": [
        {
          "attributes": {
            "COLOR_0": 10,
            "NORMAL": 9,
            "POSITION": 8
          },
          "indices": 11,
          "material": 0,
          "mode": 4
        }
      ]
    },
    {
      "name": "Object_3",
      "primitives": [
        {
          "attributes": {
            "COLOR_0": 14,
            "NORMAL": 13,
            "POSITION": 12
          },
          "indices": 15,
          "material": 0,
          "mode": 4
        }
      ]
    },
    {
      "name": "Object_4",
      "primitives": [
        {
          "attributes": {
            "COLOR_0": 18,
            "NORMAL": 17,
            "POSITION": 16
          },
          "indices": 19,
          "material": 0,
          "mode": 4
        }
      ]
    },
    {
      "name": "Object_5",
      "primitives": [
        {
          "attributes": {
            "COLOR_0": 22,
            "NORMAL": 21,
            "POSITION": 20
          },
          "indices": 23,
          "material": 0,
          "mode": 4
        }
      ]
    },
    {
      "name": "Object_6",
      "primitives": [
        {
          "attributes": {
            "COLOR_0": 26,
            "NORMAL": 25,
            "POSITION": 24
          },
          "indices": 27,
          "material": 0,
          "mode": 4
        }
      ]
    }
  ],
  "nodes": [
    {
      "children": [
        1
      ],
      "matrix": [
        0.944082498550415,
        -0.32970938086509705,
        -7.321018921426715e-17,
        0.0,
        0.0,
        2.220446049250313e-16,
        -1.0,
        0.0,
        0.32970938086509705,
        0.944082498550415,
        2.0962842540726335e-16,
        0.0,
        0.015889180824160576,
        -0.0026997162494808435,
        -5.994574280256612e-19,
        1.0
      ],
      "name": "Sketchfab_model"
    },
    {
      "children": [
        2,
        3,
        4,
        5,
        6,
        7,
        8
      ],
      "name": "Fresh.OBJ.cleaner.materialmerger.gles"
    },
    {
      "mesh": 0,
      "name": "Object_2"
    },
    {
      "mesh": 1,
      "name": "Object_3"
    },
    {
      "mesh": 2,
      "name": "Object_4"
    },
    {
      "mesh": 3,
      "name": "Object_5"
    },
    {
      "mesh": 4,
      "name": "Object_6"
    },
    {
      "mesh": 5,
      "name": "Object_7"
    },
    {
      "mesh": 6,
      "name": "Object_8"
    }
  ],
  "scene": 0,
  "scenes": [
    {
      "name": "Sketchfab_Scene",
      "nodes": [
        0
      ]
    }
  ]
}
